#N canvas 8 14 632 646 10;
#X declare -lib mrpeach;
#X obj 30 -63 import mrpeach;
#X obj 41 -31 unpackOSC;
#X obj 369 237 packOSC;
#X obj 369 345 udpsend;
#X floatatom 304 65 5 0 8 0 - - -;
#X msg 174 159 send /cW \$1;
#X msg 311 142 send /cS \$1;
#X msg 445 283 connect 127.0.0.1 12000;
#X msg 417 115 send /cX \$1;
#X msg 536 138 send /cY \$1;
#X floatatom 172 75 5 0 0 0 - - -;
#X obj 219 -128 tgl 15 0 empty empty empty 17 7 0 10 -262144 -1 -1
0 1;
#X obj 221 -60 bng 15 250 50 0 empty empty empty 17 7 0 10 -262144
-1 -1;
#X obj 219 -95 metro 10;
#X floatatom 412 46 5 -360 360 0 - - -;
#X floatatom 534 59 5 0 360 0 - - -;
#X obj 161 -9 random 5;
#X obj 277 -11 random 5;
#X connect 2 0 3 0;
#X connect 4 0 6 0;
#X connect 5 0 2 0;
#X connect 6 0 2 0;
#X connect 7 0 3 0;
#X connect 8 0 2 0;
#X connect 9 0 2 0;
#X connect 10 0 5 0;
#X connect 11 0 13 0;
#X connect 12 0 16 0;
#X connect 12 0 17 0;
#X connect 13 0 12 0;
#X connect 14 0 8 0;
#X connect 15 0 9 0;
#X connect 16 0 10 0;
#X connect 17 0 4 0;
